<svg width="24" height="22" viewBox="0 0 24 22" fill="none" xmlns="http://www.w3.org/2000/svg">
<path d="M1 0.199951C0.445833 0.199951 0 0.651357 0 1.21245C0 1.77354 0.445833 2.22495 1 2.22495H3.17083L5.68333 15.5773C5.775 16.054 6.1875 16.4 6.66667 16.4H20.3333C20.8875 16.4 21.3333 15.9485 21.3333 15.3875C21.3333 14.8264 20.8875 14.375 20.3333 14.375H7.49583L7.11667 12.35H20.325C20.9208 12.35 21.4458 11.9492 21.6083 11.367L23.8583 3.26698C24.0958 2.40636 23.4583 1.54995 22.575 1.54995H5.08333L4.98333 1.02261C4.89167 0.545889 4.47917 0.199951 4 0.199951H1ZM7.33333 21.7999C8.4375 21.7999 9.33333 20.8929 9.33333 19.775C9.33333 18.657 8.4375 17.75 7.33333 17.75C6.22917 17.75 5.33333 18.657 5.33333 19.775C5.33333 20.8929 6.22917 21.7999 7.33333 21.7999ZM21.3333 19.775C21.3333 18.657 20.4375 17.75 19.3333 17.75C18.2292 17.75 17.3333 18.657 17.3333 19.775C17.3333 20.8929 18.2292 21.7999 19.3333 21.7999C20.4375 21.7999 21.3333 20.8929 21.3333 19.775Z" fill="black"/>
</svg>
